<?xml version="1.0" standalone="no"?>
<!DOCTYPE svg PUBLIC "-//W3C//DTD SVG 20010904//EN"
 "http://www.w3.org/TR/2001/REC-SVG-20010904/DTD/svg10.dtd">
<svg version="1.0" xmlns="http://www.w3.org/2000/svg"
 width="1024.000000pt" height="1024.000000pt" viewBox="0 0 1024.000000 1024.000000"
 preserveAspectRatio="xMidYMid meet">
<metadata>
Created by potrace 1.15, written by Peter Selinger 2001-2017
</metadata>
<g transform="translate(0.000000,1024.000000) scale(0.100000,-0.100000)"
fill="#000000" stroke="none">
<path d="M1980 7828 c-112 -43 -210 -134 -263 -246 l-32 -67 0 -2357 0 -2357
21 -28 c12 -15 33 -35 47 -43 37 -21 56 -8 232 155 83 77 207 190 276 252 68
62 131 123 139 135 13 20 15 254 18 1922 2 1498 5 1902 15 1908 18 12 1188 10
1308 -2 440 -44 794 -174 952 -349 90 -101 82 94 82 -1968 l0 -1822 21 -28
c27 -37 268 -237 316 -263 21 -11 43 -20 50 -20 19 0 59 30 206 158 96 84 135
124 146 153 14 35 16 226 16 1867 l0 1828 28 45 c54 84 184 176 348 245 159
66 288 101 502 134 l197 30 635 -2 635 -3 5 -1921 c4 -1563 7 -1924 18 -1937
7 -8 39 -35 70 -58 31 -24 84 -66 117 -94 33 -28 112 -91 175 -140 63 -49 135
-107 160 -128 87 -75 136 -85 174 -34 l21 28 3 2322 2 2322 -21 64 c-41 127
-128 228 -247 284 l-67 32 -910 3 c-1021 4 -1028 3 -1315 -69 -353 -88 -627
-206 -820 -351 -49 -37 -92 -68 -95 -68 -3 0 -43 29 -91 65 -269 203 -673 349
-1136 410 -93 12 -270 15 -998 14 -874 0 -886 0 -940 -21z"/>
<path d="M2463 3160 c-31 -5 -104 -68 -490 -424 -32 -30 -53 -57 -53 -70 0
-28 84 -114 135 -137 38 -18 84 -19 811 -19 812 0 927 -5 1074 -44 47 -13 110
-29 140 -36 74 -17 149 -42 245 -80 185 -74 274 -126 449 -262 163 -127 195
-141 340 -146 193 -7 293 27 417 144 37 35 100 85 140 110 78 51 256 138 359
177 87 32 434 113 541 127 52 6 379 10 850 10 l764 0 53 25 c77 36 137 80 161
119 28 44 26 62 -6 93 -42 39 -487 389 -512 402 -26 15 -1541 16 -1605 1 -23
-5 -70 -14 -106 -20 -121 -22 -325 -80 -386 -110 -40 -19 -159 -111 -343 -265
-155 -129 -285 -235 -287 -235 -2 0 -50 42 -106 93 -386 351 -418 376 -552
418 -164 53 -354 89 -621 119 -100 11 -1348 20 -1412 10z"/>
</g>
</svg>
